<?xml version="1.0" standalone="no"?>
<!DOCTYPE svg PUBLIC "-//W3C//DTD SVG 20010904//EN"
 "http://www.w3.org/TR/2001/REC-SVG-20010904/DTD/svg10.dtd">
<svg version="1.0" xmlns="http://www.w3.org/2000/svg"
 width="512.000000pt" height="512.000000pt" viewBox="0 0 512.000000 512.000000"
 preserveAspectRatio="xMidYMid meet">

<g transform="translate(0.000000,512.000000) scale(0.100000,-0.100000)"
fill="#000000" stroke="none">
<path d="M195 5111 c-71 -18 -135 -72 -171 -141 -26 -51 -24 -162 4 -216 26
-50 103 -120 141 -129 26 -6 40 -32 192 -377 110 -248 172 -377 188 -389 22
-18 47 -19 422 -19 l398 0 6 -47 c28 -224 118 -441 250 -604 28 -34 54 -68 60
-76 8 -10 -76 -99 -349 -372 l-359 -359 -86 5 c-224 14 -453 -73 -623 -235
-277 -265 -345 -658 -173 -1002 115 -231 348 -403 610 -451 l65 -12 0 -228 c0
-226 0 -228 24 -256 l24 -28 411 -3 411 -3 19 -37 c60 -117 220 -163 339 -98
87 49 132 124 132 223 0 103 -63 199 -158 239 -46 20 -163 15 -209 -9 -42 -22
-98 -80 -113 -117 l-12 -30 -349 0 -349 0 0 173 0 174 78 15 c494 98 794 597
650 1083 -63 214 -227 410 -425 508 -35 17 -63 34 -63 37 0 3 146 151 324 329
l325 325 58 -41 c127 -88 317 -166 473 -194 98 -17 305 -17 400 0 157 28 350
107 469 192 44 30 58 36 67 26 54 -58 454 -580 450 -586 -3 -5 -27 -12 -53
-16 -120 -18 -320 -102 -448 -188 -78 -53 -250 -225 -303 -303 -89 -132 -154
-286 -188 -446 -24 -110 -24 -361 0 -466 57 -253 154 -432 330 -608 178 -178
360 -277 608 -330 110 -24 360 -24 466 0 162 36 315 101 446 188 77 52 249
224 304 304 86 128 155 291 188 444 22 104 25 331 5 440 -67 371 -313 699
-651 865 -128 64 -249 97 -435 120 l-50 7 -270 344 c-148 189 -271 348 -273
353 -2 5 18 33 43 62 154 179 248 395 280 642 l6 47 430 0 430 0 -3 -46 -3
-46 -63 -23 c-112 -40 -213 -146 -251 -262 -67 -202 26 -425 215 -515 255
-121 545 23 601 298 28 140 -13 278 -113 380 -50 52 -157 114 -196 114 -14 0
-17 16 -20 111 -3 107 -4 112 -31 135 l-28 24 -484 0 -484 0 -6 48 c-26 200
-93 380 -198 534 l-45 65 62 62 62 61 496 0 496 0 26 -45 c102 -173 353 -163
448 18 29 55 31 165 4 217 -25 49 -74 98 -121 123 -56 30 -164 30 -221 0 -50
-27 -103 -79 -116 -115 l-10 -28 -530 0 c-368 0 -536 -3 -551 -11 -12 -6 -54
-43 -93 -81 l-72 -70 -43 39 c-208 189 -534 303 -824 290 -599 -29 -1061 -458
-1140 -1059 l-6 -48 -357 0 -358 0 -137 308 c-75 170 -137 314 -137 320 0 7 5
12 10 12 6 0 28 18 49 41 117 120 80 322 -73 401 -43 22 -125 31 -171 19z m98
-173 c54 -28 63 -89 21 -132 -32 -31 -71 -34 -107 -6 -48 38 -41 110 13 137
31 16 46 16 73 1z m2438 -3 c400 -70 718 -362 820 -754 29 -111 36 -320 15
-435 -30 -158 -93 -302 -188 -430 l-43 -58 -13 88 c-29 207 -162 356 -355 398
l-28 7 59 65 c120 131 170 284 152 470 -18 198 -66 319 -165 420 -104 106
-236 154 -425 154 -189 0 -321 -48 -425 -154 -99 -101 -146 -220 -166 -418
-18 -186 31 -340 153 -473 l59 -64 -28 -7 c-193 -42 -329 -195 -357 -400 l-11
-85 -37 48 c-233 306 -276 728 -108 1064 150 302 417 505 743 564 98 18 247
18 348 0z m2193 -15 c31 -30 27 -87 -8 -116 -35 -31 -76 -31 -110 1 -59 55
-11 154 69 140 16 -3 39 -14 49 -25z m-2180 -256 c66 -25 149 -103 180 -167
27 -57 50 -136 42 -144 -2 -3 -69 34 -148 81 -182 109 -214 111 -262 18 -25
-48 -93 -99 -170 -126 -68 -25 -236 -59 -245 -50 -2 2 3 40 12 85 35 176 115
271 267 315 66 20 261 12 324 -12z m89 -439 c168 -100 161 -88 110 -194 -48
-99 -194 -223 -308 -261 -115 -38 -307 52 -411 193 -44 59 -79 126 -70 134 2
2 37 9 76 14 170 24 327 88 404 164 22 23 43 41 46 40 3 -1 72 -42 153 -90z
m-403 -648 c0 -2 -27 -70 -61 -153 -33 -82 -60 -164 -61 -183 0 -31 12 -46
109 -143 146 -144 140 -144 284 -1 99 97 109 110 109 143 0 21 -25 99 -60 185
-33 82 -60 151 -60 153 0 2 62 2 138 0 127 -3 140 -5 182 -30 110 -65 142
-131 148 -314 l5 -131 -47 -32 c-76 -53 -205 -109 -311 -137 -86 -23 -121 -26
-245 -26 -124 0 -159 3 -245 26 -103 27 -265 98 -324 143 l-33 26 4 131 c3
108 8 140 27 181 33 75 87 125 160 151 31 11 281 21 281 11z m2355 -11 c169
-71 214 -284 89 -417 -92 -97 -266 -96 -362 2 -48 49 -64 84 -70 156 -9 111
45 204 143 249 59 28 147 32 200 10z m-2188 -218 l33 -83 -35 -35 -35 -35 -35
35 -35 35 33 83 c17 45 34 82 37 82 3 0 20 -37 37 -82z m-1532 -1162 c222 -75
394 -260 451 -486 22 -85 22 -236 0 -320 -31 -120 -128 -298 -147 -269 -5 8
-9 30 -9 50 0 124 -106 298 -230 381 -21 14 -23 19 -13 35 59 86 68 116 68
218 0 86 -3 106 -24 145 -111 212 -382 257 -548 91 -54 -54 -78 -99 -92 -176
-17 -93 6 -194 60 -264 25 -31 24 -38 -8 -55 -99 -51 -204 -220 -224 -359 -13
-88 -17 -88 -70 -6 -140 219 -140 509 1 732 88 140 249 257 412 298 107 28
265 21 373 -15z m3002 23 c109 -14 283 -76 382 -134 104 -62 241 -190 309
-289 243 -350 251 -796 23 -1144 -32 -48 -65 -93 -74 -101 -16 -12 -17 -9 -17
40 -1 193 -126 359 -318 421 l-71 23 50 50 c61 60 109 138 141 225 20 57 23
82 22 200 -2 215 -55 370 -165 480 -103 102 -238 150 -428 150 -304 0 -483
-132 -562 -415 -33 -118 -34 -322 -1 -417 28 -81 87 -174 146 -231 l44 -43
-72 -23 c-40 -12 -95 -37 -123 -56 -114 -77 -193 -223 -193 -359 0 -59 0 -59
-20 -41 -36 33 -113 158 -151 245 -118 275 -113 574 14 844 191 403 620 635
1064 575z m-3126 -272 c53 -35 79 -82 79 -140 0 -99 -69 -172 -165 -171 -63 0
-108 24 -141 74 -52 78 -26 192 55 238 50 30 127 29 172 -1z m3170 -6 c78 -30
139 -87 177 -163 28 -58 52 -148 39 -148 -3 0 -69 38 -148 85 -81 49 -153 85
-168 85 -37 0 -68 -24 -91 -71 -25 -47 -82 -91 -159 -120 -58 -22 -160 -45
-221 -51 -34 -3 -35 -2 -32 32 17 189 115 322 270 366 75 21 263 13 333 -15z
m125 -457 l111 -67 -13 -45 c-32 -105 -153 -236 -273 -295 -96 -47 -168 -45
-275 6 -96 45 -207 152 -248 237 -14 30 -25 56 -23 58 1 2 34 8 71 13 174 24
324 84 409 161 l50 46 40 -24 c22 -13 90 -54 151 -90z m-3231 -59 c71 -37 138
-109 164 -181 17 -44 21 -78 21 -173 l0 -118 -58 -26 c-101 -45 -183 -60 -312
-54 -118 5 -178 20 -269 67 l-44 22 6 118 c4 100 9 128 32 177 28 62 79 121
133 155 92 57 229 62 327 13z m2785 -573 c0 -5 -27 -75 -60 -157 -33 -82 -60
-162 -60 -178 0 -25 19 -49 108 -139 100 -99 112 -108 147 -108 34 0 46 9 141
103 63 63 105 113 110 131 5 22 -8 64 -59 192 l-65 164 126 0 c112 0 133 -3
177 -24 60 -27 107 -72 138 -130 19 -36 22 -60 25 -186 l4 -145 -79 -47 c-316
-191 -717 -191 -1035 0 l-78 46 0 133 c0 143 7 173 57 246 26 38 74 73 128 94
34 13 275 17 275 5z m172 -225 c15 -39 28 -76 28 -81 0 -14 -52 -66 -65 -66
-6 0 -24 14 -40 30 l-29 31 17 48 c29 83 48 123 54 117 4 -3 19 -39 35 -79z
m-2027 -302 c62 -62 -2 -162 -85 -133 -42 14 -65 60 -51 100 14 40 38 57 79
58 22 0 41 -8 57 -25z"/>
</g>
</svg>
